Coordinates
version=1
nRows=26
nColumns=22
inDegrees=yes

Units are S.I. units (second, meters, Newtons, ...)
If the header above contains a line with 'inDegrees', this indicates whether rotational values are in degrees (yes) or radians (no).

endheader
time	pelvis_tilt	pelvis_list	pelvis_rotation	pelvis_tx	pelvis_ty	pelvis_tz	hip_flexion_r	hip_adduction_r	hip_rotation_r	knee_angle_r	ankle_angle_r	subtalar_angle_r	hip_flexion_l	hip_adduction_l	hip_rotation_l	knee_angle_l	ankle_angle_l	subtalar_angle_l	lumbar_extension	lumbar_bending	lumbar_rotation
      1.80000000	     -0.11789024	     -1.38092182	    -29.31864050	     -0.96122709	      0.90556054	     -0.41747463	      9.69871974	     -2.40405350	      4.34623871	    -26.67770869	     15.81688206	      2.11621509	      3.21451748	      0.49412622	    -14.85021998	    -19.52395689	     17.77247916	     -6.47834906	     -9.61596377	     -1.42123126	      6.22766113
      1.81000000	     -0.11118269	     -1.40627230	    -29.31271514	     -0.96057224	      0.90564673	     -0.41880928	     10.42265030	     -2.39345545	      4.23884504	    -27.94495050	     15.64623748	      1.81600554	      3.17602760	      0.59138395	    -14.81249063	    -19.47377666	     17.74961980	     -6.59799422	     -9.77445295	     -1.39592245	      6.08141961
      1.82000000	     -0.10835221	     -1.43015306	    -29.27937973	     -0.95983211	      0.90572948	     -0.42011370	     11.12697504	     -2.39542220	      4.05639765	    -29.16319371	     15.50035452	      1.44095565	      3.13387635	      0.68708465	    -14.76091481	    -19.41542146	     17.72756720	     -6.71317775	     -9.91659308	     -1.36478782	      5.91559684
      1.83000000	     -0.09717567	     -1.45460179	    -29.22133504	     -0.95900959	      0.90582484	     -0.42137994	     11.79560484	     -2.41494544	      3.81141569	    -30.31913778	     15.38792752	      1.00812992	      3.06944200	      0.78683851	    -14.69207730	    -19.33829773	     17.70464175	     -6.80618890	    -10.05700431	     -1.33500460	      5.73198942
      1.84000000	     -0.08298931	     -1.48200905	    -29.14065369	     -0.95810481	      0.90592500	     -0.42259771	     12.42673605	     -2.44603035	      3.51089068	    -31.39562600	     15.32037684	      0.50650714	      2.98755949	      0.88272139	    -14.61955969	    -19.24690687	     17.68124101	     -6.88262204	    -10.19091370	     -1.30182378	      5.53522756
      1.85000000	     -0.07597164	     -1.53176978	    -29.04878104	     -0.95713317	      0.90603002	     -0.42373909	     13.01431316	     -2.46073325	      3.17191285	    -32.37083451	     15.30105688	     -0.18926387	      2.89711602	      0.93969843	    -14.59303185	    -19.16390245	     17.66462473	     -6.96996387	    -10.31901811	     -1.24104239	      5.33828976
      1.86000000	     -0.02838110	     -1.56494488	    -28.93182219	     -0.95608428	      0.90617491	     -0.42487441	     13.54426880	     -2.52904311	      2.79561491	    -33.25846781	     15.32255710	     -0.59660796	      2.74725671	      1.05192910	    -14.46660790	    -19.02609080	     17.63491525	     -6.97779062	    -10.47483043	     -1.21771971	      5.12781067
      1.87000000	     -0.01589502	     -1.62481700	    -28.80891312	     -0.95498899	      0.90630115	     -0.42589031	     14.04354794	     -2.55234906	      2.39839556	    -34.00847899	     15.38140505	     -1.31959695	      2.62596983	      1.09457735	    -14.43066263	    -18.92248799	     17.61539625	     -7.01709516	    -10.59454042	     -1.15346437	      4.92068847
      1.88000000	      0.02433710	     -1.68981075	    -28.67416997	     -0.95384497	      0.90646750	     -0.42687534	     14.47895695	     -2.59187351	      1.99273924	    -34.64095643	     15.46629198	     -1.86397262	      2.46745963	      1.15230857	    -14.34197349	    -18.80835668	     17.59949200	     -7.01392680	    -10.74282905	     -1.09741109	      4.71820314
      1.89000000	      0.07292420	     -1.75431332	    -28.53546370	     -0.95263093	      0.90664759	     -0.42780530	     14.86981075	     -2.64503172	      1.56853638	    -35.14853665	     15.55521521	     -2.12130025	      2.28859892	      1.21367899	    -14.25478939	    -18.68042689	     17.60013115	     -6.98819045	    -10.88966658	     -1.04266096	      4.50747785
      1.90000000	      0.08939399	     -1.85632260	    -28.39376727	     -0.95140525	      0.90683211	     -0.42862299	     15.21733902	     -2.63339487	      1.15388206	    -35.49413449	     15.68387400	     -2.78658792	      2.13216849	      1.20870683	    -14.16283617	    -18.58408805	     17.56925313	     -6.95443822	    -11.01602790	     -0.94456088	      4.34984579
      1.91000000	      0.12584042	     -1.94215384	    -28.25363316	     -0.95014152	      0.90701849	     -0.42938054	     15.53199710	     -2.64969614	      0.74203274	    -35.73661095	     15.78216735	     -2.95975279	      1.96326082	      1.22585228	    -14.07746205	    -18.49292727	     17.57622209	     -6.91295280	    -11.14967968	     -0.87466153	      4.17448837
      1.92000000	      0.14479417	     -2.05435190	    -28.10728009	     -0.94882747	      0.90721763	     -0.43007769	     15.79914042	     -2.63048297	      0.32170366	    -35.82523580	     15.87024625	     -3.21256587	      1.79814667	      1.20548817	    -13.96843430	    -18.41188336	     17.56501538	     -6.85067805	    -11.27138959	     -0.76373293	      4.02457586
      1.93000000	      0.15806258	     -2.17960001	    -27.97899227	     -0.94749469	      0.90742164	     -0.43065545	     16.02925671	     -2.58042790	     -0.06528712	    -35.78366666	     15.94372171	     -3.46661348	      1.62685409	      1.16159064	    -13.87656522	    -18.33550446	     17.56700837	     -6.76812017	    -11.38610899	     -0.64521966	      3.90993777
      1.94000000	      0.16474659	     -2.30699077	    -27.86837898	     -0.94614412	      0.90761684	     -0.43111425	     16.23379451	     -2.50939892	     -0.41913401	    -35.62348427	     15.99280971	     -3.67294613	      1.45573188	      1.10539868	    -13.80177400	    -18.26298381	     17.57254844	     -6.67478591	    -11.48756205	     -0.52924850	      3.82628527
      1.95000000	      0.16612168	     -2.43077836	    -27.76783012	     -0.94475882	      0.90779482	     -0.43149749	     16.41693328	     -2.43145533	     -0.75186774	    -35.35298498	     16.01934123	     -3.81895649	      1.28897990	      1.04620084	    -13.73838853	    -18.19568956	     17.58683236	     -6.57836765	    -11.57411227	     -0.41217714	      3.75988903
      1.96000000	      0.16473083	     -2.55305882	    -27.67417058	     -0.94336766	      0.90795209	     -0.43177109	     16.57942809	     -2.34348928	     -1.07330135	    -34.98427025	     16.02686788	     -3.90803884	      1.13225346	      0.97910306	    -13.67080115	    -18.15159174	     17.60565198	     -6.48579998	    -11.65200889	     -0.30831014	      3.72483453
      1.97000000	      0.16239366	     -2.67498937	    -27.58557529	     -0.94194086	      0.90808877	     -0.43197505	     16.72340193	     -2.25055644	     -1.38148052	    -34.53003695	     16.01506873	     -3.95363331	      0.97365183	      0.90949354	    -13.60493545	    -18.11124961	     17.63725364	     -6.39072420	    -11.72368368	     -0.20174886	      3.69224646
      1.98000000	      0.15826998	     -2.79462434	    -27.50065771	     -0.94049555	      0.90819865	     -0.43209849	     16.85036924	     -2.15202821	     -1.67793447	    -33.99385011	     15.98726776	     -3.95329595	      0.82201619	      0.83628824	    -13.53607581	    -18.08710734	     17.67743229	     -6.30301260	    -11.78814289	     -0.10116321	      3.67353105
      1.99000000	      0.15693550	     -2.91147316	    -27.41953270	     -0.93901732	      0.90828402	     -0.43213674	     16.95977575	     -2.05359297	     -1.96888030	    -33.38876709	     15.94141910	     -3.90943124	      0.66622601	      0.76315413	    -13.46915708	    -18.06830439	     17.73277824	     -6.21959667	    -11.84826208	     -0.01039717	      3.65998653
      2.00000000	      0.15424231	     -3.02206418	    -27.34214074	     -0.93751764	      0.90833406	     -0.43212337	     17.06030341	     -1.95520866	     -2.24028610	    -32.72076618	     15.88362854	     -3.83163550	      0.51792204	      0.69394164	    -13.39561130	    -18.06217072	     17.79377955	     -6.15367651	    -11.90177539	      0.07794338	      3.66549132
      2.01000000	      0.16090998	     -3.12998028	    -27.26609118	     -0.93598361	      0.90836623	     -0.43202357	     17.14192183	     -1.86154647	     -2.51177043	    -32.00431853	     15.80728581	     -3.71781577	      0.35686080	      0.62720756	    -13.32504663	    -18.05627884	     17.87099558	     -6.09552200	    -11.95709301	      0.15104540	      3.66662914
      2.02000000	      0.18576873	     -3.23359280	    -27.18675281	     -0.93437821	      0.90838789	     -0.43188999	     17.19737855	     -1.78681437	     -2.79270683	    -31.24689076	     15.71391980	     -3.54446977	      0.17001621	      0.57365872	    -13.26581366	    -18.04155971	     17.96025241	     -6.03928458	    -12.02402456	      0.21921949	      3.65971523
      2.03000000	      0.20144194	     -3.32710938	    -27.11360034	     -0.93276637	      0.90836122	     -0.43167285	     17.26133819	     -1.70544465	     -3.04537798	    -30.45658778	     15.61288942	     -3.37781701	     -0.00104503	      0.52156464	    -13.19109906	    -18.03837463	     18.04599006	     -6.00751667	    -12.07285780	      0.27522291	      3.66922057
      2.04000000	      0.21802980	     -3.41555764	    -27.03620117	     -0.93113439	      0.90830305	     -0.43141879	     17.32038936	     -1.62449595	     -3.28365121	    -29.63795322	     15.49839813	     -3.22137209	     -0.16649703	      0.47358283	    -13.09903094	    -18.04691250	     18.13423141	     -5.98884445	    -12.12281961	      0.32681928	      3.68533581
      2.05000000	      0.24377534	     -3.49612694	    -26.95690697	     -0.92943987	      0.90822026	     -0.43110969	     17.37160442	     -1.55764179	     -3.53088502	    -28.80816114	     15.37550038	     -3.05178363	     -0.34897982	      0.43577903	    -13.01657690	    -18.04291821	     18.23148164	     -5.97464300	    -12.17001614	      0.37151110	      3.68927019
